<svg xmlns="http://www.w3.org/2000/svg" xmlns:xlink="http://www.w3.org/1999/xlink" width="610.54" height="1098.466" viewBox="0 0 610.54 1098.466">
  <defs>
    <clipPath id="clip-path">
      <rect id="Rectangle_5" data-name="Rectangle 5" width="610.54" height="1098.466" transform="translate(0 0.004)" fill="none"/>
    </clipPath>
  </defs>
  <g id="Group_24" data-name="Group 24" transform="translate(0 -0.004)">
    <g id="Group_23" data-name="Group 23" clip-path="url(#clip-path)">
      <path id="Path_481" data-name="Path 481" d="M0,1093.952a4.517,4.517,0,1,0,4.518-4.516A4.531,4.531,0,0,0,0,1093.952" fill="#82b0fd"/>
      <path id="Path_482" data-name="Path 482" d="M120.444,1093.952a4.516,4.516,0,1,0,4.516-4.516,4.529,4.529,0,0,0-4.516,4.516" fill="#82b0fd"/>
      <path id="Path_483" data-name="Path 483" d="M321.177,1093.952a4.517,4.517,0,1,0,4.516-4.516,4.531,4.531,0,0,0-4.516,4.516" fill="#82b0fd"/>
      <path id="Path_484" data-name="Path 484" d="M361.323,1093.952a4.517,4.517,0,1,0,4.518-4.516,4.531,4.531,0,0,0-4.518,4.516" fill="#82b0fd"/>
      <path id="Path_485" data-name="Path 485" d="M441.616,1093.952a4.517,4.517,0,1,0,4.518-4.516,4.531,4.531,0,0,0-4.518,4.516" fill="#82b0fd"/>
      <path id="Path_486" data-name="Path 486" d="M40.146,1053.8a4.517,4.517,0,1,0,4.518-4.516,4.529,4.529,0,0,0-4.518,4.516" fill="#82b0fd"/>
      <path id="Path_487" data-name="Path 487" d="M200.736,1053.8a4.516,4.516,0,1,0,4.516-4.516,4.529,4.529,0,0,0-4.516,4.516" fill="#82b0fd"/>
      <path id="Path_488" data-name="Path 488" d="M281.031,1053.8a4.517,4.517,0,1,0,4.516-4.516,4.529,4.529,0,0,0-4.516,4.516" fill="#82b0fd"/>
      <path id="Path_489" data-name="Path 489" d="M401.47,1053.8a4.517,4.517,0,1,0,4.518-4.516,4.529,4.529,0,0,0-4.518,4.516" fill="#82b0fd"/>
      <path id="Path_490" data-name="Path 490" d="M441.616,1053.8a4.517,4.517,0,1,0,4.518-4.516,4.529,4.529,0,0,0-4.518,4.516" fill="#82b0fd"/>
      <path id="Path_491" data-name="Path 491" d="M80.292,1013.657a4.517,4.517,0,1,0,4.518-4.516,4.529,4.529,0,0,0-4.518,4.516" fill="#82b0fd"/>
      <path id="Path_492" data-name="Path 492" d="M200.736,1013.657a4.516,4.516,0,1,0,4.516-4.516,4.529,4.529,0,0,0-4.516,4.516" fill="#82b0fd"/>
      <path id="Path_493" data-name="Path 493" d="M281.031,1013.657a4.517,4.517,0,1,0,4.516-4.516,4.529,4.529,0,0,0-4.516,4.516" fill="#82b0fd"/>
      <path id="Path_494" data-name="Path 494" d="M321.177,1013.657a4.517,4.517,0,1,0,4.516-4.516,4.529,4.529,0,0,0-4.516,4.516" fill="#82b0fd"/>
      <path id="Path_495" data-name="Path 495" d="M401.47,1013.657a4.517,4.517,0,1,0,4.518-4.516,4.529,4.529,0,0,0-4.518,4.516" fill="#82b0fd"/>
      <path id="Path_496" data-name="Path 496" d="M120.444,973.51a4.516,4.516,0,1,0,4.516-4.516,4.529,4.529,0,0,0-4.516,4.516" fill="#82b0fd"/>
      <path id="Path_497" data-name="Path 497" d="M160.59,973.51a4.516,4.516,0,1,0,4.516-4.516,4.529,4.529,0,0,0-4.516,4.516" fill="#82b0fd"/>
      <path id="Path_498" data-name="Path 498" d="M200.736,973.51a4.516,4.516,0,1,0,4.516-4.516,4.53,4.53,0,0,0-4.516,4.516" fill="#82b0fd"/>
      <path id="Path_499" data-name="Path 499" d="M240.882,973.51a4.516,4.516,0,1,0,4.516-4.516,4.53,4.53,0,0,0-4.516,4.516" fill="#82b0fd"/>
      <path id="Path_500" data-name="Path 500" d="M321.177,973.51a4.517,4.517,0,1,0,4.516-4.516,4.53,4.53,0,0,0-4.516,4.516" fill="#82b0fd"/>
      <path id="Path_501" data-name="Path 501" d="M361.323,973.51a4.517,4.517,0,1,0,4.518-4.516,4.531,4.531,0,0,0-4.518,4.516" fill="#82b0fd"/>
      <path id="Path_502" data-name="Path 502" d="M401.47,973.51a4.517,4.517,0,1,0,4.518-4.516,4.531,4.531,0,0,0-4.518,4.516" fill="#82b0fd"/>
      <path id="Path_503" data-name="Path 503" d="M441.616,973.51a4.517,4.517,0,1,0,4.518-4.516,4.531,4.531,0,0,0-4.518,4.516" fill="#82b0fd"/>
      <path id="Path_504" data-name="Path 504" d="M481.767,973.51a4.516,4.516,0,1,0,4.516-4.516,4.529,4.529,0,0,0-4.516,4.516" fill="#82b0fd"/>
      <path id="Path_505" data-name="Path 505" d="M40.146,933.364a4.517,4.517,0,1,0,4.518-4.516,4.531,4.531,0,0,0-4.518,4.516" fill="#82b0fd"/>
      <path id="Path_506" data-name="Path 506" d="M281.031,933.364a4.517,4.517,0,1,0,4.516-4.516,4.53,4.53,0,0,0-4.516,4.516" fill="#82b0fd"/>
      <path id="Path_507" data-name="Path 507" d="M361.323,933.364a4.517,4.517,0,1,0,4.518-4.516,4.531,4.531,0,0,0-4.518,4.516" fill="#82b0fd"/>
      <path id="Path_508" data-name="Path 508" d="M401.47,933.364a4.517,4.517,0,1,0,4.518-4.516,4.531,4.531,0,0,0-4.518,4.516" fill="#82b0fd"/>
      <path id="Path_509" data-name="Path 509" d="M0,893.215A4.517,4.517,0,1,0,4.518,888.7,4.531,4.531,0,0,0,0,893.215" fill="#82b0fd"/>
      <path id="Path_510" data-name="Path 510" d="M120.444,893.215a4.516,4.516,0,1,0,4.516-4.518,4.529,4.529,0,0,0-4.516,4.518" fill="#82b0fd"/>
      <path id="Path_511" data-name="Path 511" d="M240.882,893.215A4.516,4.516,0,1,0,245.4,888.7a4.53,4.53,0,0,0-4.516,4.518" fill="#82b0fd"/>
      <path id="Path_512" data-name="Path 512" d="M361.323,893.215a4.517,4.517,0,1,0,4.518-4.518,4.531,4.531,0,0,0-4.518,4.518" fill="#82b0fd"/>
      <path id="Path_513" data-name="Path 513" d="M481.767,893.215a4.516,4.516,0,1,0,4.516-4.518,4.529,4.529,0,0,0-4.516,4.518" fill="#82b0fd"/>
      <path id="Path_514" data-name="Path 514" d="M281.031,853.069a4.517,4.517,0,1,0,4.516-4.518,4.53,4.53,0,0,0-4.516,4.518" fill="#82b0fd"/>
      <path id="Path_515" data-name="Path 515" d="M361.323,853.069a4.517,4.517,0,1,0,4.518-4.518,4.531,4.531,0,0,0-4.518,4.518" fill="#82b0fd"/>
      <path id="Path_516" data-name="Path 516" d="M441.616,853.069a4.517,4.517,0,1,0,4.518-4.518,4.531,4.531,0,0,0-4.518,4.518" fill="#82b0fd"/>
      <path id="Path_517" data-name="Path 517" d="M401.47,812.921a4.517,4.517,0,1,0,4.518-4.516,4.531,4.531,0,0,0-4.518,4.516" fill="#82b0fd"/>
      <path id="Path_518" data-name="Path 518" d="M441.616,812.921a4.517,4.517,0,1,0,4.518-4.516,4.531,4.531,0,0,0-4.518,4.516" fill="#82b0fd"/>
      <path id="Path_519" data-name="Path 519" d="M481.767,812.921a4.516,4.516,0,1,0,4.516-4.516,4.529,4.529,0,0,0-4.516,4.516" fill="#82b0fd"/>
      <path id="Path_520" data-name="Path 520" d="M321.177,772.775a4.517,4.517,0,1,0,4.516-4.516,4.531,4.531,0,0,0-4.516,4.516" fill="#82b0fd"/>
      <path id="Path_521" data-name="Path 521" d="M361.324,772.775a4.517,4.517,0,1,0,4.518-4.516,4.531,4.531,0,0,0-4.518,4.516" fill="#82b0fd"/>
      <path id="Path_522" data-name="Path 522" d="M240.882,732.628a4.516,4.516,0,1,0,4.516-4.516,4.531,4.531,0,0,0-4.516,4.516" fill="#82b0fd"/>
      <path id="Path_523" data-name="Path 523" d="M361.324,732.628a4.517,4.517,0,1,0,4.518-4.516,4.531,4.531,0,0,0-4.518,4.516" fill="#82b0fd"/>
      <path id="Path_524" data-name="Path 524" d="M481.767,732.628a4.516,4.516,0,1,0,4.516-4.516,4.529,4.529,0,0,0-4.516,4.516" fill="#82b0fd"/>
      <path id="Path_525" data-name="Path 525" d="M281.031,692.479a4.517,4.517,0,1,0,4.516-4.516,4.529,4.529,0,0,0-4.516,4.516" fill="#82b0fd"/>
      <path id="Path_526" data-name="Path 526" d="M401.47,692.479a4.517,4.517,0,1,0,4.518-4.516,4.529,4.529,0,0,0-4.518,4.516" fill="#82b0fd"/>
      <path id="Path_527" data-name="Path 527" d="M441.616,692.479a4.517,4.517,0,1,0,4.518-4.516,4.529,4.529,0,0,0-4.518,4.516" fill="#82b0fd"/>
      <path id="Path_528" data-name="Path 528" d="M321.177,652.333a4.517,4.517,0,1,0,4.516-4.516,4.529,4.529,0,0,0-4.516,4.516" fill="#82b0fd"/>
      <path id="Path_529" data-name="Path 529" d="M441.616,652.333a4.517,4.517,0,1,0,4.518-4.516,4.529,4.529,0,0,0-4.518,4.516" fill="#82b0fd"/>
      <path id="Path_530" data-name="Path 530" d="M321.177,612.187a4.517,4.517,0,1,0,4.516-4.516,4.53,4.53,0,0,0-4.516,4.516" fill="#82b0fd"/>
      <path id="Path_531" data-name="Path 531" d="M401.47,612.187a4.517,4.517,0,1,0,4.518-4.516,4.531,4.531,0,0,0-4.518,4.516" fill="#82b0fd"/>
      <path id="Path_532" data-name="Path 532" d="M481.767,612.187a4.516,4.516,0,1,0,4.516-4.516,4.529,4.529,0,0,0-4.516,4.516" fill="#82b0fd"/>
      <path id="Path_533" data-name="Path 533" d="M401.47,572.041a4.517,4.517,0,1,0,4.518-4.516,4.531,4.531,0,0,0-4.518,4.516" fill="#82b0fd"/>
      <path id="Path_534" data-name="Path 534" d="M361.324,531.892a4.517,4.517,0,1,0,4.518-4.518,4.531,4.531,0,0,0-4.518,4.518" fill="#82b0fd"/>
      <path id="Path_535" data-name="Path 535" d="M441.616,531.892a4.517,4.517,0,1,0,4.518-4.518,4.531,4.531,0,0,0-4.518,4.518" fill="#82b0fd"/>
      <path id="Path_536" data-name="Path 536" d="M321.177,491.746a4.517,4.517,0,1,0,4.516-4.518,4.53,4.53,0,0,0-4.516,4.518" fill="#82b0fd"/>
      <path id="Path_537" data-name="Path 537" d="M441.616,491.746a4.517,4.517,0,1,0,4.518-4.518,4.531,4.531,0,0,0-4.518,4.518" fill="#82b0fd"/>
      <path id="Path_538" data-name="Path 538" d="M281.031,451.6a4.517,4.517,0,1,0,4.516-4.516,4.531,4.531,0,0,0-4.516,4.516" fill="#82b0fd"/>
      <path id="Path_539" data-name="Path 539" d="M361.324,451.6a4.517,4.517,0,1,0,4.518-4.516,4.531,4.531,0,0,0-4.518,4.516" fill="#82b0fd"/>
      <path id="Path_540" data-name="Path 540" d="M0,411.451a4.517,4.517,0,1,0,4.518-4.516A4.531,4.531,0,0,0,0,411.451" fill="#82b0fd"/>
      <path id="Path_541" data-name="Path 541" d="M361.324,411.451a4.517,4.517,0,1,0,4.518-4.516,4.531,4.531,0,0,0-4.518,4.516" fill="#82b0fd"/>
      <path id="Path_542" data-name="Path 542" d="M401.47,411.451a4.517,4.517,0,1,0,4.518-4.516,4.531,4.531,0,0,0-4.518,4.516" fill="#82b0fd"/>
      <path id="Path_543" data-name="Path 543" d="M441.616,411.451a4.517,4.517,0,1,0,4.518-4.516,4.531,4.531,0,0,0-4.518,4.516" fill="#82b0fd"/>
      <path id="Path_544" data-name="Path 544" d="M481.767,411.451a4.516,4.516,0,1,0,4.516-4.516,4.529,4.529,0,0,0-4.516,4.516" fill="#82b0fd"/>
      <path id="Path_545" data-name="Path 545" d="M74.992,371.3a4.517,4.517,0,1,0,4.518-4.516,4.531,4.531,0,0,0-4.518,4.516" fill="#82b0fd"/>
      <path id="Path_546" data-name="Path 546" d="M281.031,371.3a4.517,4.517,0,1,0,4.516-4.516,4.531,4.531,0,0,0-4.516,4.516" fill="#82b0fd"/>
      <path id="Path_547" data-name="Path 547" d="M441.616,371.3a4.517,4.517,0,1,0,4.518-4.516,4.531,4.531,0,0,0-4.518,4.516" fill="#82b0fd"/>
      <path id="Path_548" data-name="Path 548" d="M361.324,331.156a4.517,4.517,0,1,0,4.518-4.516,4.529,4.529,0,0,0-4.518,4.516" fill="#82b0fd"/>
      <path id="Path_549" data-name="Path 549" d="M0,291.01a4.517,4.517,0,1,0,4.518-4.516A4.529,4.529,0,0,0,0,291.01" fill="#82b0fd"/>
      <path id="Path_550" data-name="Path 550" d="M281.031,291.01a4.517,4.517,0,1,0,4.516-4.516,4.529,4.529,0,0,0-4.516,4.516" fill="#82b0fd"/>
      <path id="Path_551" data-name="Path 551" d="M361.324,291.01a4.517,4.517,0,1,0,4.518-4.516,4.529,4.529,0,0,0-4.518,4.516" fill="#82b0fd"/>
      <path id="Path_552" data-name="Path 552" d="M401.47,291.01a4.517,4.517,0,1,0,4.518-4.516,4.529,4.529,0,0,0-4.518,4.516" fill="#82b0fd"/>
      <path id="Path_553" data-name="Path 553" d="M441.616,291.01a4.517,4.517,0,1,0,4.518-4.516,4.529,4.529,0,0,0-4.518,4.516" fill="#82b0fd"/>
      <path id="Path_554" data-name="Path 554" d="M481.767,291.01a4.516,4.516,0,1,0,4.516-4.516,4.528,4.528,0,0,0-4.516,4.516" fill="#82b0fd"/>
      <path id="Path_555" data-name="Path 555" d="M120.444,250.863a4.516,4.516,0,1,0,4.516-4.516,4.528,4.528,0,0,0-4.516,4.516" fill="#82b0fd"/>
      <path id="Path_556" data-name="Path 556" d="M200.736,250.864a4.516,4.516,0,1,0,4.516-4.516,4.529,4.529,0,0,0-4.516,4.516" fill="#82b0fd"/>
      <path id="Path_557" data-name="Path 557" d="M321.178,250.864a4.517,4.517,0,1,0,4.516-4.516,4.529,4.529,0,0,0-4.516,4.516" fill="#82b0fd"/>
      <path id="Path_558" data-name="Path 558" d="M361.324,250.864a4.517,4.517,0,1,0,4.518-4.516,4.529,4.529,0,0,0-4.518,4.516" fill="#82b0fd"/>
      <path id="Path_559" data-name="Path 559" d="M401.47,250.864a4.517,4.517,0,1,0,4.518-4.516,4.529,4.529,0,0,0-4.518,4.516" fill="#82b0fd"/>
      <path id="Path_560" data-name="Path 560" d="M481.767,250.864a4.516,4.516,0,1,0,4.516-4.516,4.528,4.528,0,0,0-4.516,4.516" fill="#82b0fd"/>
      <path id="Path_561" data-name="Path 561" d="M120.444,210.717a4.516,4.516,0,1,0,4.516-4.516,4.529,4.529,0,0,0-4.516,4.516" fill="#82b0fd"/>
      <path id="Path_562" data-name="Path 562" d="M200.736,210.717a4.516,4.516,0,1,0,4.516-4.516,4.53,4.53,0,0,0-4.516,4.516" fill="#82b0fd"/>
      <path id="Path_563" data-name="Path 563" d="M401.47,210.717a4.517,4.517,0,1,0,4.518-4.516,4.531,4.531,0,0,0-4.518,4.516" fill="#82b0fd"/>
      <path id="Path_564" data-name="Path 564" d="M441.616,210.717a4.517,4.517,0,1,0,4.518-4.516,4.531,4.531,0,0,0-4.518,4.516" fill="#82b0fd"/>
      <path id="Path_565" data-name="Path 565" d="M81.619,167.377a4.511,4.511,0,1,0,3.192-1.327,4.511,4.511,0,0,0-3.192,1.327" fill="#82b0fd"/>
      <path id="Path_566" data-name="Path 566" d="M322.5,167.377a4.511,4.511,0,1,0,3.189-1.327,4.511,4.511,0,0,0-3.189,1.327" fill="#82b0fd"/>
      <path id="Path_567" data-name="Path 567" d="M362.65,167.377a4.511,4.511,0,1,0,3.192-1.327,4.511,4.511,0,0,0-3.192,1.327" fill="#82b0fd"/>
      <path id="Path_568" data-name="Path 568" d="M442.943,167.377a4.511,4.511,0,1,0,3.192-1.327,4.511,4.511,0,0,0-3.192,1.327" fill="#82b0fd"/>
      <path id="Path_569" data-name="Path 569" d="M483.094,167.377a4.51,4.51,0,1,0,3.189-1.327,4.511,4.511,0,0,0-3.189,1.327" fill="#82b0fd"/>
      <path id="Path_570" data-name="Path 570" d="M121.771,127.231a4.509,4.509,0,1,0,3.189-1.327,4.5,4.5,0,0,0-3.189,1.327" fill="#82b0fd"/>
      <path id="Path_571" data-name="Path 571" d="M202.063,127.231a4.51,4.51,0,1,0,3.189-1.327,4.511,4.511,0,0,0-3.189,1.327" fill="#82b0fd"/>
      <path id="Path_572" data-name="Path 572" d="M282.358,127.231a4.511,4.511,0,1,0,3.189-1.327,4.511,4.511,0,0,0-3.189,1.327" fill="#82b0fd"/>
      <path id="Path_573" data-name="Path 573" d="M322.5,127.231a4.511,4.511,0,1,0,3.189-1.327,4.511,4.511,0,0,0-3.189,1.327" fill="#82b0fd"/>
      <path id="Path_574" data-name="Path 574" d="M362.65,127.231a4.511,4.511,0,1,0,3.192-1.327,4.511,4.511,0,0,0-3.192,1.327" fill="#82b0fd"/>
      <path id="Path_575" data-name="Path 575" d="M483.094,127.231a4.51,4.51,0,1,0,3.189-1.327,4.511,4.511,0,0,0-3.189,1.327" fill="#82b0fd"/>
      <path id="Path_576" data-name="Path 576" d="M1.327,87.084a4.511,4.511,0,1,0,3.192-1.327,4.511,4.511,0,0,0-3.192,1.327" fill="#82b0fd"/>
      <path id="Path_577" data-name="Path 577" d="M81.619,87.084a4.511,4.511,0,1,0,3.192-1.327,4.511,4.511,0,0,0-3.192,1.327" fill="#82b0fd"/>
      <path id="Path_578" data-name="Path 578" d="M202.063,87.084a4.51,4.51,0,1,0,3.189-1.327,4.511,4.511,0,0,0-3.189,1.327" fill="#82b0fd"/>
      <path id="Path_579" data-name="Path 579" d="M242.209,87.084a4.51,4.51,0,1,0,3.189-1.327,4.511,4.511,0,0,0-3.189,1.327" fill="#82b0fd"/>
      <path id="Path_580" data-name="Path 580" d="M282.358,87.084a4.511,4.511,0,1,0,3.189-1.327,4.511,4.511,0,0,0-3.189,1.327" fill="#82b0fd"/>
      <path id="Path_581" data-name="Path 581" d="M362.65,87.084a4.511,4.511,0,1,0,3.192-1.327,4.511,4.511,0,0,0-3.192,1.327" fill="#82b0fd"/>
      <path id="Path_582" data-name="Path 582" d="M402.8,87.085a4.511,4.511,0,1,0,3.192-1.327,4.511,4.511,0,0,0-3.192,1.327" fill="#82b0fd"/>
      <path id="Path_583" data-name="Path 583" d="M610.54,90.276a4.517,4.517,0,1,0-4.516,4.516,4.531,4.531,0,0,0,4.516-4.516" fill="#82b0fd"/>
      <path id="Path_584" data-name="Path 584" d="M570.394,90.276a4.517,4.517,0,1,0-4.518,4.516,4.531,4.531,0,0,0,4.518-4.516" fill="#82b0fd"/>
      <path id="Path_585" data-name="Path 585" d="M530.248,130.425a4.517,4.517,0,1,0-4.518,4.516,4.529,4.529,0,0,0,4.518-4.516" fill="#82b0fd"/>
      <path id="Path_586" data-name="Path 586" d="M610.54,170.571a4.517,4.517,0,1,0-4.516,4.516,4.529,4.529,0,0,0,4.516-4.516" fill="#82b0fd"/>
      <path id="Path_587" data-name="Path 587" d="M530.248,170.571a4.517,4.517,0,1,0-4.518,4.516,4.529,4.529,0,0,0,4.518-4.516" fill="#82b0fd"/>
      <path id="Path_588" data-name="Path 588" d="M610.54,210.717a4.517,4.517,0,1,0-4.516,4.516,4.53,4.53,0,0,0,4.516-4.516" fill="#82b0fd"/>
      <path id="Path_589" data-name="Path 589" d="M570.394,210.717a4.517,4.517,0,1,0-4.518,4.516,4.531,4.531,0,0,0,4.518-4.516" fill="#82b0fd"/>
      <path id="Path_590" data-name="Path 590" d="M530.248,210.717a4.517,4.517,0,1,0-4.518,4.516,4.531,4.531,0,0,0,4.518-4.516" fill="#82b0fd"/>
      <path id="Path_591" data-name="Path 591" d="M120.444,44.671a4.516,4.516,0,1,0,4.516-4.516,4.529,4.529,0,0,0-4.516,4.516" fill="#82b0fd"/>
      <path id="Path_592" data-name="Path 592" d="M200.736,44.671a4.516,4.516,0,1,0,4.516-4.516,4.53,4.53,0,0,0-4.516,4.516" fill="#82b0fd"/>
      <path id="Path_593" data-name="Path 593" d="M401.47,44.671a4.517,4.517,0,1,0,4.518-4.516,4.531,4.531,0,0,0-4.518,4.516" fill="#82b0fd"/>
      <path id="Path_594" data-name="Path 594" d="M441.616,44.671a4.517,4.517,0,1,0,4.518-4.516,4.531,4.531,0,0,0-4.518,4.516" fill="#82b0fd"/>
      <path id="Path_595" data-name="Path 595" d="M81.619,1.33A4.511,4.511,0,1,0,84.811,0,4.511,4.511,0,0,0,81.619,1.33" fill="#82b0fd"/>
      <path id="Path_596" data-name="Path 596" d="M322.5,1.33A4.511,4.511,0,1,0,325.693,0,4.511,4.511,0,0,0,322.5,1.33" fill="#82b0fd"/>
      <path id="Path_597" data-name="Path 597" d="M362.65,1.33A4.511,4.511,0,1,0,365.842,0,4.511,4.511,0,0,0,362.65,1.33" fill="#82b0fd"/>
      <path id="Path_598" data-name="Path 598" d="M442.943,1.33A4.511,4.511,0,1,0,446.135,0a4.511,4.511,0,0,0-3.192,1.327" fill="#82b0fd"/>
      <path id="Path_599" data-name="Path 599" d="M483.094,1.33A4.51,4.51,0,1,0,486.283,0a4.511,4.511,0,0,0-3.189,1.327" fill="#82b0fd"/>
      <path id="Path_600" data-name="Path 600" d="M610.54,4.525a4.517,4.517,0,1,0-4.516,4.516,4.529,4.529,0,0,0,4.516-4.516" fill="#82b0fd"/>
      <path id="Path_601" data-name="Path 601" d="M530.248,4.525a4.517,4.517,0,1,0-4.518,4.516,4.529,4.529,0,0,0,4.518-4.516" fill="#82b0fd"/>
      <path id="Path_602" data-name="Path 602" d="M610.54,44.671a4.517,4.517,0,1,0-4.516,4.516,4.53,4.53,0,0,0,4.516-4.516" fill="#82b0fd"/>
      <path id="Path_603" data-name="Path 603" d="M570.394,44.671a4.517,4.517,0,1,0-4.518,4.516,4.531,4.531,0,0,0,4.518-4.516" fill="#82b0fd"/>
      <path id="Path_604" data-name="Path 604" d="M530.248,44.671a4.517,4.517,0,1,0-4.518,4.516,4.531,4.531,0,0,0,4.518-4.516" fill="#82b0fd"/>
      <path id="Path_605" data-name="Path 605" d="M570.394,250.864a4.517,4.517,0,1,0-4.518,4.516,4.531,4.531,0,0,0,4.518-4.516" fill="#82b0fd"/>
      <path id="Path_606" data-name="Path 606" d="M530.248,250.864a4.517,4.517,0,1,0-4.518,4.516,4.531,4.531,0,0,0,4.518-4.516" fill="#82b0fd"/>
      <path id="Path_607" data-name="Path 607" d="M570.394,291.012a4.517,4.517,0,1,0-4.518,4.518,4.531,4.531,0,0,0,4.518-4.518" fill="#82b0fd"/>
      <path id="Path_608" data-name="Path 608" d="M570.394,331.158a4.517,4.517,0,1,0-4.518,4.518,4.531,4.531,0,0,0,4.518-4.518" fill="#82b0fd"/>
      <path id="Path_609" data-name="Path 609" d="M530.248,371.307a4.517,4.517,0,1,0-4.518,4.516,4.531,4.531,0,0,0,4.518-4.516" fill="#82b0fd"/>
      <path id="Path_610" data-name="Path 610" d="M610.54,411.453a4.517,4.517,0,1,0-4.516,4.516,4.531,4.531,0,0,0,4.516-4.516" fill="#82b0fd"/>
      <path id="Path_611" data-name="Path 611" d="M570.394,411.453a4.517,4.517,0,1,0-4.518,4.516,4.531,4.531,0,0,0,4.518-4.516" fill="#82b0fd"/>
      <path id="Path_612" data-name="Path 612" d="M570.394,451.6a4.517,4.517,0,1,0-4.518,4.516,4.532,4.532,0,0,0,4.518-4.516" fill="#82b0fd"/>
      <path id="Path_613" data-name="Path 613" d="M530.248,491.748a4.517,4.517,0,1,0-4.518,4.516,4.529,4.529,0,0,0,4.518-4.516" fill="#82b0fd"/>
      <path id="Path_614" data-name="Path 614" d="M610.54,531.9a4.517,4.517,0,1,0-4.516,4.516,4.529,4.529,0,0,0,4.516-4.516" fill="#82b0fd"/>
      <path id="Path_615" data-name="Path 615" d="M610.54,572.041a4.517,4.517,0,1,0-4.516,4.516,4.53,4.53,0,0,0,4.516-4.516" fill="#82b0fd"/>
      <path id="Path_616" data-name="Path 616" d="M530.248,572.041a4.517,4.517,0,1,0-4.518,4.516,4.531,4.531,0,0,0,4.518-4.516" fill="#82b0fd"/>
      <path id="Path_617" data-name="Path 617" d="M530.248,612.187a4.517,4.517,0,1,0-4.518,4.516,4.531,4.531,0,0,0,4.518-4.516" fill="#82b0fd"/>
      <path id="Path_618" data-name="Path 618" d="M570.394,652.336a4.517,4.517,0,1,0-4.518,4.518,4.531,4.531,0,0,0,4.518-4.518" fill="#82b0fd"/>
      <path id="Path_619" data-name="Path 619" d="M610.54,692.482A4.517,4.517,0,1,0,606.024,697a4.53,4.53,0,0,0,4.516-4.518" fill="#82b0fd"/>
      <path id="Path_620" data-name="Path 620" d="M570.394,732.631a4.517,4.517,0,1,0-4.518,4.516,4.531,4.531,0,0,0,4.518-4.516" fill="#82b0fd"/>
      <path id="Path_621" data-name="Path 621" d="M570.394,772.777a4.517,4.517,0,1,0-4.518,4.516,4.531,4.531,0,0,0,4.518-4.516" fill="#82b0fd"/>
      <path id="Path_622" data-name="Path 622" d="M530.247,772.777a4.517,4.517,0,1,0-4.518,4.516,4.531,4.531,0,0,0,4.518-4.516" fill="#82b0fd"/>
      <path id="Path_623" data-name="Path 623" d="M570.394,853.072a4.517,4.517,0,1,0-4.518,4.516,4.529,4.529,0,0,0,4.518-4.516" fill="#82b0fd"/>
      <path id="Path_624" data-name="Path 624" d="M570.394,893.218a4.517,4.517,0,1,0-4.518,4.516,4.529,4.529,0,0,0,4.518-4.516" fill="#82b0fd"/>
      <path id="Path_625" data-name="Path 625" d="M530.247,893.218a4.517,4.517,0,1,0-4.518,4.516,4.529,4.529,0,0,0,4.518-4.516" fill="#82b0fd"/>
      <path id="Path_626" data-name="Path 626" d="M610.54,933.364a4.517,4.517,0,1,0-4.516,4.516,4.529,4.529,0,0,0,4.516-4.516" fill="#82b0fd"/>
      <path id="Path_627" data-name="Path 627" d="M570.394,933.364a4.517,4.517,0,1,0-4.518,4.516,4.529,4.529,0,0,0,4.518-4.516" fill="#82b0fd"/>
      <path id="Path_628" data-name="Path 628" d="M530.247,933.364a4.517,4.517,0,1,0-4.518,4.516,4.529,4.529,0,0,0,4.518-4.516" fill="#82b0fd"/>
      <path id="Path_629" data-name="Path 629" d="M530.247,973.51a4.517,4.517,0,1,0-4.518,4.516,4.531,4.531,0,0,0,4.518-4.516" fill="#82b0fd"/>
      <path id="Path_630" data-name="Path 630" d="M609.213,1016.851a4.511,4.511,0,1,0-3.189,1.327,4.511,4.511,0,0,0,3.189-1.327" fill="#82b0fd"/>
      <path id="Path_631" data-name="Path 631" d="M569.067,1016.851a4.511,4.511,0,1,0-3.192,1.327,4.511,4.511,0,0,0,3.192-1.327" fill="#82b0fd"/>
      <path id="Path_632" data-name="Path 632" d="M609.213,1057a4.511,4.511,0,1,0-3.189,1.327,4.511,4.511,0,0,0,3.189-1.327" fill="#82b0fd"/>
      <path id="Path_633" data-name="Path 633" d="M569.067,1057a4.511,4.511,0,1,0-3.192,1.327,4.511,4.511,0,0,0,3.192-1.327" fill="#82b0fd"/>
      <path id="Path_634" data-name="Path 634" d="M569.067,1097.143a4.511,4.511,0,1,0-3.192,1.327,4.511,4.511,0,0,0,3.192-1.327" fill="#82b0fd"/>
      <path id="Path_635" data-name="Path 635" d="M528.921,1097.143a4.511,4.511,0,1,0-3.192,1.327,4.511,4.511,0,0,0,3.192-1.327" fill="#82b0fd"/>
      <path id="Path_636" data-name="Path 636" d="M442.943,87.085a4.511,4.511,0,1,0,3.192-1.327,4.511,4.511,0,0,0-3.192,1.327" fill="#82b0fd"/>
    </g>
  </g>
</svg>
